<?xml version="1.0" encoding="iso-8859-1"?>
<!-- Generator: Adobe Illustrator 19.0.0, SVG Export Plug-In . SVG Version: 6.00 Build 0)  -->
<svg version="1.1" id="Layer_1" xmlns="http://www.w3.org/2000/svg" xmlns:xlink="http://www.w3.org/1999/xlink" x="0px" y="0px"
	 viewBox="0 0 512 512" style="enable-background:new 0 0 512 512;" xml:space="preserve">
<g>
	<g>
		<g>
			<path d="M281.6,332.8c4.719,0,8.533-3.823,8.533-8.533V204.8h25.6c23.526,0,42.667-19.14,42.667-42.667
				c0-23.526-19.14-42.667-42.667-42.667c-23.526,0-42.667,19.14-42.667,42.667v25.6h-34.133v-25.6
				c0-23.526-19.14-42.667-42.667-42.667c-23.526,0-42.667,19.14-42.667,42.667c0,23.526,19.14,42.667,42.667,42.667h25.6v119.467
				c0,4.71,3.823,8.533,8.533,8.533s8.533-3.823,8.533-8.533V204.8h34.133v119.467C273.067,328.977,276.881,332.8,281.6,332.8z
				 M290.133,162.133c0-14.114,11.486-25.6,25.6-25.6s25.6,11.486,25.6,25.6s-11.486,25.6-25.6,25.6h-25.6V162.133z
				 M221.867,187.733h-25.6c-14.114,0-25.6-11.486-25.6-25.6s11.486-25.6,25.6-25.6s25.6,11.486,25.6,25.6V187.733z"/>
			<path d="M60.928,18.15l32.666,27.418c1.604,1.348,3.55,1.997,5.487,1.997c2.432,0,4.855-1.033,6.536-3.046
				c3.029-3.61,2.56-8.994-1.05-12.023L71.902,5.077c-3.61-3.021-8.986-2.551-12.023,1.05C56.849,9.745,57.318,15.121,60.928,18.15z
				"/>
			<path d="M66.449,92.612L26.368,78.029c-4.429-1.604-9.318,0.674-10.94,5.103c-1.604,4.429,0.674,9.327,5.103,10.94l40.081,14.583
				c0.964,0.35,1.946,0.521,2.918,0.521c3.482,0,6.758-2.159,8.021-5.623C73.165,99.123,70.878,94.225,66.449,92.612z"/>
			<path d="M412.894,47.565c1.928,0,3.874-0.657,5.47-1.997l32.683-27.435c3.61-3.029,4.087-8.405,1.05-12.023
				c-3.004-3.593-8.388-4.079-12.015-1.05l-32.683,27.435c-3.61,3.029-4.079,8.405-1.05,12.023
				C408.03,46.524,410.453,47.565,412.894,47.565z"/>
			<path d="M51.183,162.15H8.533c-4.71,0-8.533,3.823-8.533,8.533c0,4.71,3.823,8.533,8.533,8.533h42.65
				c4.71,0,8.533-3.823,8.533-8.533C59.716,165.973,55.893,162.15,51.183,162.15z"/>
			<path d="M496.555,83.106c-1.604-4.42-6.511-6.716-10.931-5.094l-40.09,14.592c-4.437,1.613-6.716,6.511-5.103,10.94
				c1.263,3.465,4.531,5.615,8.021,5.615c0.964,0,1.954-0.162,2.91-0.521l40.098-14.592
				C495.889,92.433,498.176,87.535,496.555,83.106z"/>
			<path d="M256,0C161.894,0,85.333,76.561,85.333,170.667c0,72.021,28.245,125.747,88.909,169.079
				c0.29,0.205,0.717,0.461,1.033,0.631c0.444,0.239,9.626,5.367,11.93,19.755c-9.634,3.678-16.538,12.954-16.538,23.868
				c0,6.554,2.475,12.536,6.536,17.067c-4.062,4.531-6.536,10.513-6.536,17.067c0,6.554,2.475,12.535,6.536,17.067
				c-4.062,4.531-6.536,10.513-6.536,17.067c0,14.114,11.486,25.6,25.6,25.6c4.71,0,8.533-3.823,8.533-8.533
				s-3.823-8.533-8.533-8.533c-4.702,0-8.533-3.831-8.533-8.533c0-4.702,3.831-8.533,8.533-8.533H281.6
				c4.719,0,8.533-3.823,8.533-8.533s-3.814-8.533-8.533-8.533h-85.333c-4.702,0-8.533-3.831-8.533-8.533s3.831-8.533,8.533-8.533
				H281.6c4.719,0,8.533-3.823,8.533-8.533s-3.814-8.533-8.533-8.533h-85.333c-4.702,0-8.533-3.831-8.533-8.533
				c0-4.702,3.831-8.533,8.533-8.533H281.6c4.719,0,8.533-3.823,8.533-8.533s-3.814-8.533-8.533-8.533h-77.38
				c-3.021-21.487-16.947-30.797-20.437-32.811c-56.286-40.337-81.382-88.132-81.382-154.923c0-84.693,68.907-153.6,153.6-153.6
				s153.6,68.907,153.6,153.6c0,66.79-25.097,114.586-81.382,154.923c-3.925,2.261-21.018,13.739-21.018,41.344
				c0,4.71,3.814,8.533,8.533,8.533c4.71,0,8.533,3.831,8.533,8.533c0,4.702-3.823,8.533-8.533,8.533
				c-4.719,0-8.533,3.823-8.533,8.533s3.814,8.533,8.533,8.533c4.71,0,8.533,3.831,8.533,8.533s-3.823,8.533-8.533,8.533
				c-4.719,0-8.533,3.823-8.533,8.533s3.814,8.533,8.533,8.533c4.71,0,8.533,3.831,8.533,8.533c0,4.864-3.669,8.533-8.533,8.533
				H230.4c-4.71,0-8.533,3.823-8.533,8.533V486.4c0,14.114,11.486,25.6,25.6,25.6h17.067c14.114,0,25.6-11.486,25.6-25.6v-8.533
				h25.6c14.362,0,25.6-11.247,25.6-25.6c0-6.554-2.475-12.535-6.537-17.067c4.062-4.531,6.537-10.513,6.537-17.067
				c0-6.554-2.475-12.535-6.537-17.067c4.062-4.531,6.537-10.513,6.537-17.067c0-10.914-6.904-20.19-16.546-23.868
				c2.304-14.387,11.477-19.507,11.827-19.703c0.401-0.196,0.785-0.427,1.143-0.683c60.655-43.332,88.909-97.058,88.909-169.079
				C426.667,76.561,350.106,0,256,0z M273.067,486.4c0,4.702-3.823,8.533-8.533,8.533h-17.067c-4.702,0-8.533-3.831-8.533-8.533
				v-8.533h34.133V486.4z"/>
			<path d="M503.467,162.133H460.8c-4.719,0-8.533,3.823-8.533,8.533s3.814,8.533,8.533,8.533h42.667
				c4.719,0,8.533-3.823,8.533-8.533S508.186,162.133,503.467,162.133z"/>
		</g>
	</g>
</g>
<g>
</g>
<g>
</g>
<g>
</g>
<g>
</g>
<g>
</g>
<g>
</g>
<g>
</g>
<g>
</g>
<g>
</g>
<g>
</g>
<g>
</g>
<g>
</g>
<g>
</g>
<g>
</g>
<g>
</g>
</svg>
